<?xml version="1.0" standalone="no"?>
<!DOCTYPE svg PUBLIC "-//W3C//DTD SVG 20010904//EN"
 "http://www.w3.org/TR/2001/REC-SVG-20010904/DTD/svg10.dtd">
<svg version="1.0" xmlns="http://www.w3.org/2000/svg"
 width="512.000000pt" height="512.000000pt" viewBox="0 0 512.000000 512.000000"
 preserveAspectRatio="xMidYMid meet">
<metadata>
Created by potrace 1.14, written by Peter Selinger 2001-2017
</metadata>
<g transform="translate(0.000000,512.000000) scale(0.100000,-0.100000)"
fill="#000000" stroke="none">
<path d="M3450 4821 c-5 -11 -10 -47 -10 -80 l0 -61 -68 0 c-70 0 -92 -10 -92
-42 0 -26 31 -38 99 -38 l61 0 0 -68 c0 -70 10 -92 42 -92 26 0 38 31 38 99
l0 60 71 3 c55 2 74 7 83 21 8 12 8 22 0 35 -9 13 -28 18 -83 20 l-71 3 0 67
c0 40 -5 73 -12 80 -18 18 -46 14 -58 -7z"/>
<path d="M10 4665 c-10 -12 -10 -21 -2 -41 12 -24 14 -25 113 -22 84 3 104 6
113 21 8 12 8 22 0 35 -16 24 -204 31 -224 7z"/>
<path d="M330 4665 c-10 -12 -10 -21 -2 -40 l12 -25 661 2 c618 3 663 4 673
21 8 12 8 22 0 35 -10 16 -55 17 -671 20 -584 2 -662 0 -673 -13z"/>
<path d="M3972 4508 c-7 -7 -12 -40 -12 -80 l0 -68 -69 0 c-80 0 -101 -14 -83
-55 11 -23 17 -25 82 -25 l70 0 0 -68 c0 -70 10 -92 42 -92 26 0 38 31 38 99
l0 61 70 0 c65 0 71 2 82 25 18 41 -3 55 -83 55 l-69 0 0 61 c0 33 -5 69 -10
80 -12 21 -40 25 -58 7z"/>
<path d="M1735 3952 l-810 -487 0 -985 0 -985 260 -158 c143 -86 267 -160 275
-164 8 -4 50 -29 94 -56 43 -27 92 -57 110 -67 17 -10 108 -64 201 -120 94
-56 184 -110 200 -120 17 -9 62 -36 100 -60 39 -24 79 -48 90 -54 11 -6 81
-48 156 -94 76 -45 143 -82 150 -82 8 1 379 220 824 488 l810 487 0 985 0 985
-260 157 c-143 87 -271 164 -285 171 -14 8 -146 87 -295 177 -148 89 -284 171
-302 181 -18 10 -49 29 -70 42 -126 80 -413 247 -425 247 -7 -1 -377 -220
-823 -488z m966 316 c74 -44 148 -89 164 -98 17 -10 107 -64 200 -120 94 -57
179 -108 190 -114 11 -6 80 -47 153 -91 73 -44 145 -87 160 -96 15 -9 136 -82
269 -162 231 -138 241 -146 220 -159 -12 -8 -354 -214 -759 -457 l-738 -442
-755 453 c-415 249 -755 456 -755 459 0 5 752 461 865 525 11 6 159 95 330
198 170 102 312 186 316 186 3 0 66 -37 140 -82z"/>
<path d="M2390 3879 c-80 -49 -156 -95 -170 -103 -80 -43 -181 -110 -212 -140
-93 -90 -107 -244 -33 -353 19 -29 76 -77 130 -110 247 -151 327 -184 446
-184 78 0 180 21 234 48 44 23 543 321 593 355 47 33 55 63 19 79 -20 9 -58
-11 -317 -166 -161 -97 -305 -182 -319 -189 -57 -30 -127 -47 -190 -47 -118 0
-162 16 -337 120 -82 49 -162 102 -177 119 -45 47 -61 125 -42 200 5 22 81
112 94 112 19 0 477 284 485 300 11 25 -8 50 -38 49 -11 -1 -86 -41 -166 -90z"/>
<path d="M3448 335 c-8 -19 -8 -28 2 -40 11 -13 92 -15 670 -15 578 0 659 2
670 15 10 12 10 21 2 40 l-12 25 -660 0 -660 0 -12 -25z"/>
<path d="M4892 348 c-6 -6 -12 -20 -12 -29 0 -32 25 -40 125 -37 80 2 100 6
109 21 8 12 8 22 0 35 -9 14 -29 18 -110 20 -69 2 -103 -1 -112 -10z"/>
</g>
</svg>
